<svg width="106" height="106" viewBox="0 0 106 106" fill="none" xmlns="http://www.w3.org/2000/svg">
<g clip-path="url(#clip0_522_578)">
<path d="M38.7356 0.227682C36.0856 0.74526 33.4149 2.81557 32.297 5.21714C31.531 6.85268 31.2618 8.23979 31.2618 10.5792V12.4218H23.2083C18.6122 12.4218 14.6993 12.5046 14.0575 12.6289C10.186 13.3742 7.22549 16.4382 6.58369 20.4132C5.9626 24.1605 7.95009 28.0941 11.3661 29.8953L12.7946 30.6406L12.9188 31.8414C13.0017 32.4832 14.2645 47.6378 15.7345 65.5253C17.2251 83.3921 18.5087 98.3812 18.6122 98.816C19.3575 102.025 22.2767 104.923 25.5477 105.689C27.4317 106.145 78.5685 106.145 80.4524 105.689C83.7235 104.923 86.6427 102.025 87.388 98.816C87.4915 98.3812 88.7751 83.3921 90.2657 65.5253C91.7356 47.6378 92.9985 32.4832 93.0813 31.8414L93.2056 30.6406L94.6341 29.8953C98.0501 28.0941 100.038 24.1605 99.4165 20.4132C98.7747 16.4382 95.8142 13.3742 91.9427 12.6289C91.3009 12.5046 87.388 12.4218 82.7919 12.4218H74.7384V10.5792C74.7384 9.58549 74.6349 8.26049 74.5313 7.6394C73.8274 3.91284 70.8255 0.910885 67.0989 0.206979C65.7325 -0.0414589 40.0606 -0.0414589 38.7356 0.227682ZM66.8712 6.62495C68.1134 7.26674 68.5274 8.23979 68.5274 10.5585V12.4218H53.0001H37.4727V10.5585C37.4727 8.2812 37.8868 7.26674 39.0876 6.64565C39.8329 6.25229 40.3298 6.23159 52.9587 6.21089C65.6911 6.21089 66.0845 6.23159 66.8712 6.62495ZM91.7149 19.0468C92.6466 19.523 93.3712 20.7031 93.3712 21.7382C93.3712 22.7734 92.6466 23.9535 91.7149 24.4296C90.9075 24.8437 90.5763 24.8437 53.0001 24.8437C15.4239 24.8437 15.0927 24.8437 14.2853 24.4296C13.3536 23.9535 12.629 22.7734 12.629 21.7382C12.629 20.7445 13.3536 19.523 14.2438 19.0675C14.9892 18.6535 15.5895 18.6535 52.9587 18.6328C90.597 18.6328 90.9075 18.6328 91.7149 19.0468ZM86.829 31.9242C86.7876 32.421 85.5247 47.3894 84.0548 65.1734C81.1563 100.244 81.3841 98.257 80.0591 99.2507L79.4794 99.6855H53.0001H26.5208L25.9411 99.2507C24.6161 98.257 24.8438 100.244 21.9454 65.1734C20.4755 47.3894 19.2126 32.421 19.1712 31.9242L19.047 31.0546H53.0001H86.9532L86.829 31.9242Z" fill="white"/>
<path d="M32.8558 37.7004C32.3382 37.9695 31.9241 38.4043 31.655 38.984L31.2202 39.8742L32.7937 65.4219C34.5534 94.0129 34.3671 92.3152 36.0026 93.1641C37.0585 93.6816 37.8866 93.6816 38.9425 93.1641C39.5015 92.8742 39.8948 92.4602 40.1847 91.8598L40.6194 90.9695L39.046 65.4219C37.2862 36.8309 37.4726 38.5285 35.837 37.6797C34.8019 37.1621 33.8702 37.1621 32.8558 37.7004Z" fill="white"/>
<path d="M51.5094 37.7004C51.0332 37.9488 50.557 38.425 50.3086 38.9219C49.8945 39.7293 49.8945 40.102 49.8945 65.4219C49.8945 90.7625 49.8945 91.1145 50.3086 91.9219C50.7848 92.8535 51.9648 93.5781 53 93.5781C54.0352 93.5781 55.2152 92.8535 55.6914 91.9219C56.1055 91.1145 56.1055 90.7625 56.1055 65.4219C56.1055 40.0813 56.1055 39.7293 55.6914 38.9219C54.9254 37.4105 53.0621 36.8723 51.5094 37.7004Z" fill="white"/>
<path d="M70.1214 37.7004C68.5272 38.5492 68.7136 36.9344 66.9538 65.4219L65.3804 90.9695L65.8151 91.8598C66.105 92.4602 66.4983 92.8742 67.0573 93.1641C68.1132 93.6816 68.9413 93.6816 69.9972 93.1641C71.6327 92.3152 71.4464 94.0129 73.2062 65.4219L74.7796 39.8742L74.3448 38.984C73.5788 37.4313 71.7155 36.8516 70.1214 37.7004Z" fill="white"/>
</g>
<defs>
<clipPath id="clip0_522_578">
<rect width="106" height="106" fill="white"/>
</clipPath>
</defs>
</svg>
